<?xml version="1.0" encoding="iso-8859-1"?>
<!-- Generator: Adobe Illustrator 16.0.0, SVG Export Plug-In . SVG Version: 6.00 Build 0)  -->
<!DOCTYPE svg PUBLIC "-//W3C//DTD SVG 1.1//EN" "http://www.w3.org/Graphics/SVG/1.1/DTD/svg11.dtd">
<svg version="1.1" id="Capa_1" xmlns="http://www.w3.org/2000/svg" xmlns:xlink="http://www.w3.org/1999/xlink" x="0px" y="0px"
	 width="30px" height="30px" viewBox="0 0 30 30" style="enable-background:new 0 0 30 30;" xml:space="preserve">
<g>
	<g>
		<path d="M15,0C6.729,0,0,6.729,0,15c0,8.271,6.729,15,15,15c8.271,0,15-6.729,15-15C30,6.729,23.271,0,15,0z M15,27.777
			C7.956,27.777,2.223,22.046,2.223,15S7.956,2.223,15,2.223S27.777,7.954,27.777,15S22.044,27.777,15,27.777z"/>
		<path d="M12.803,11.412c0,0.705,0.477,1.293,1.428,1.766V9.924C13.279,10.095,12.803,10.591,12.803,11.412z"/>
		<path d="M15,3.5C8.66,3.5,3.5,8.659,3.5,15S8.66,26.5,15,26.5S26.5,21.341,26.5,15S21.34,3.5,15,3.5z M18.839,20.893
			c-0.726,0.694-1.762,1.117-3.11,1.268v2.229H14.23v-2.166c-1.39-0.008-2.683-0.322-3.881-0.945v-2.844
			c0.397,0.322,0.989,0.621,1.776,0.894c0.787,0.274,1.488,0.431,2.104,0.473v-3.737c-1.602-0.595-2.695-1.239-3.28-1.935
			c-0.585-0.695-0.878-1.542-0.878-2.541c0-1.075,0.38-1.99,1.14-2.746c0.76-0.756,1.766-1.196,3.019-1.319V5.613h1.499v1.868
			c1.443,0.068,2.521,0.301,3.233,0.698v2.771c-0.959-0.582-2.036-0.938-3.233-1.067v3.891c1.498,0.541,2.572,1.158,3.224,1.853
			c0.649,0.695,0.976,1.535,0.976,2.521C19.928,19.282,19.564,20.198,18.839,20.893z"/>
		<path d="M15.729,16.646v3.11c0.979-0.149,1.47-0.64,1.47-1.468C17.197,17.62,16.707,17.072,15.729,16.646z"/>
	</g>
</g>
<g>
</g>
<g>
</g>
<g>
</g>
<g>
</g>
<g>
</g>
<g>
</g>
<g>
</g>
<g>
</g>
<g>
</g>
<g>
</g>
<g>
</g>
<g>
</g>
<g>
</g>
<g>
</g>
<g>
</g>
</svg>
